<?xml version="1.0" encoding="utf-8"?>
<!-- Generator: Adobe Illustrator 16.0.3, SVG Export Plug-In . SVG Version: 6.00 Build 0)  -->
<!DOCTYPE svg PUBLIC "-//W3C//DTD SVG 1.1//EN" "http://www.w3.org/Graphics/SVG/1.1/DTD/svg11.dtd">
<svg version="1.1" id="Ebene_1" xmlns="http://www.w3.org/2000/svg" xmlns:xlink="http://www.w3.org/1999/xlink" x="0px" y="0px"
	 width="595.28px" height="121.907px" viewBox="0 0 595.28 121.907" enable-background="new 0 0 595.28 121.907"
	 xml:space="preserve">
<g>
	<defs>
		<rect id="SVGID_1_" width="595.279" height="121.907"/>
	</defs>
	<clipPath id="SVGID_2_">
		<use xlink:href="#SVGID_1_"  overflow="visible"/>
	</clipPath>
	<path clip-path="url(#SVGID_2_)" fill="#FFFFFF" d="M579.126,121.493H17.192c-4.233,0-8.084-1.716-10.877-4.489
		c-2.799-2.769-4.533-6.588-4.533-10.785V16.53c0-4.204,1.734-8.023,4.533-10.789C9.108,2.969,12.958,1.25,17.192,1.25h561.934
		c4.233,0,8.086,1.719,10.877,4.492c2.799,2.766,4.533,6.584,4.533,10.789v89.689c0,4.196-1.734,8.016-4.533,10.785
		C587.212,119.777,583.359,121.493,579.126,121.493"/>
	<path clip-path="url(#SVGID_2_)" fill-rule="evenodd" clip-rule="evenodd" fill="#DADADA" d="M579.81,119.53H343.553
		c-6.566,0-7.805-3.431-2.754-7.624l50.17-41.66c5.051-4.193,5.136-11.155,0.192-15.473l-50.991-44.54
		c-4.943-4.318-3.619-7.849,2.946-7.849H579.81c3.608,0,6.885,1.475,9.266,3.853c2.373,2.374,3.849,5.649,3.849,9.254v90.932
		c0,3.604-1.476,6.876-3.849,9.25C586.694,118.051,583.418,119.53,579.81,119.53"/>
	<path clip-path="url(#SVGID_2_)" fill-rule="evenodd" clip-rule="evenodd" fill="#FFFFFF" d="M438.43,55.199
		c0.592-2.636,1.656-5.139,3.468-7.125c3.254-3.583,8.101-4.599,12.756-4.599h12.858v8.193h-12.726c-1.716,0-3.638,0.311-4.91,1.571
		c-1.002,0.987-1.468,2.403-1.671,3.808l19.307,0.019v8.171h-19.429c0.118,1.52,0.48,3.213,1.476,4.251
		c1.249,1.305,3.534,1.538,5.228,1.538h12.726v8.197h-13.059c-2.1,0-4.492-0.115-6.511-0.717c-1.696-0.506-3.234-1.368-4.617-2.474
		c-1.931-1.545-3.31-3.52-4.208-5.819c-1.021-2.606-1.36-5.49-1.36-8.274c0-1.039,0.037-2.111,0.133-3.187
		c-0.311,1.031-0.769,2.015-1.412,2.917c-1.079,1.508-2.507,2.529-4.167,3.154l8.611,14.4h-10.692l-7.357-13.106h-6.37v13.106H407.1
		V43.475h18.472c3.269,0,7.068,0.506,9.635,2.721c2.484,2.145,3.231,5.35,3.231,8.511C438.438,54.87,438.434,55.036,438.43,55.199
		 M455.618,33.855h10.659l-10.862,8.844h-5.975L455.618,33.855z M478.478,43.475v21.163c0,1.686,0.174,4.4,1.383,5.72
		c1.139,1.25,3.364,1.46,4.947,1.46c1.567,0,3.793-0.207,4.928-1.45c1.202-1.316,1.372-4.056,1.372-5.73V43.475h9.398v21.344
		c0,1.926-0.078,4.03-0.492,5.912c-0.3,1.379-0.82,2.762-1.737,3.853c-1.486,1.768-3.357,3.028-5.527,3.827
		c-2.492,0.917-5.295,1.187-7.931,1.187c-2.647,0-5.453-0.274-7.953-1.187c-2.181-0.795-4.059-2.052-5.553-3.827
		c-0.895-1.064-1.405-2.41-1.708-3.756c-0.418-1.896-0.48-4.074-0.48-6.008V43.475H478.478z M525.321,64.024l-0.289-20.549h9.562
		v35.748H524.57l-12.404-21.821l0.271,21.821h-9.602V43.475h10.766L525.321,64.024z M536.938,43.475h9.724v35.748h-9.724V43.475z
		 M579.77,51.805h-18.52c-1.021,0-2.514,0.115-3.35,0.784c-0.702,0.565-0.854,1.534-0.854,2.388c0,0.666,0.129,1.353,0.669,1.8
		c0.658,0.533,1.749,0.64,2.559,0.64h9.275c2.98,0,6.682,0.407,9.003,2.481c2.277,2.03,2.84,5.243,2.84,8.148
		c0,3.15-0.747,6.345-3.231,8.47c-2.566,2.204-6.366,2.707-9.635,2.707h-19.861V70.89h18.752c0.954,0,2.714-0.074,3.527-0.654
		c0.606-0.425,0.725-1.224,0.725-1.919c0-0.669-0.1-1.583-0.673-2.033c-0.699-0.551-2.256-0.629-3.105-0.629h-8.274
		c-3.121,0-6.767-0.477-9.214-2.591c-2.381-2.056-3.087-5.158-3.087-8.182c0-3.18,0.721-6.478,3.213-8.659
		c2.565-2.244,6.418-2.747,9.701-2.747h19.54V51.805z M416.502,51.805v6.03h7.413c1.102,0,3.231-0.082,4.17-0.739
		c0.721-0.507,0.858-1.483,0.858-2.3c0-0.791-0.13-1.771-0.829-2.267c-0.916-0.65-3.12-0.725-4.199-0.725H416.502z"/>
	<path clip-path="url(#SVGID_2_)" fill-rule="evenodd" clip-rule="evenodd" fill="#E2001A" d="M408.29,44.666h17.281
		c4.022,0,6.98,0.81,8.854,2.433c1.878,1.62,2.817,4.156,2.817,7.609c0,2.559-0.581,4.647-1.737,6.271
		c-1.158,1.619-2.829,2.666-5.01,3.135l8.325,13.92h-7.893l-7.354-13.106h-8.267v13.106h-7.018V44.666z M423.915,50.614h-8.607
		v8.411h8.607c2.329,0,3.948-0.318,4.857-0.958c0.906-0.636,1.361-1.727,1.361-3.268c0-1.531-0.444-2.614-1.331-3.239
		C427.919,50.929,426.288,50.614,423.915,50.614 M456.235,35.045h6.692l-7.935,6.459h-3.265L456.235,35.045z M454.794,50.474
		c-2.544,0-4.463,0.64-5.757,1.912c-1.29,1.275-2.008,3.228-2.145,5.849l19.429,0.022v5.79h-19.473
		c0.015,2.906,0.632,4.999,1.845,6.267c1.22,1.272,3.25,1.908,6.101,1.908h11.527v5.812h-11.872c-2.613,0-4.669-0.226-6.163-0.669
		c-1.493-0.447-2.898-1.201-4.215-2.263c-1.708-1.356-2.987-3.135-3.845-5.32c-0.851-2.185-1.279-4.803-1.279-7.842
		c0-5.901,1.275-10.256,3.83-13.063c2.552-2.81,6.515-4.211,11.876-4.211h11.668v5.808H454.794z M477.291,44.666v19.972
		c0,3.117,0.565,5.291,1.689,6.525c1.124,1.231,3.068,1.849,5.827,1.849c2.754,0,4.688-0.61,5.812-1.837
		c1.116-1.224,1.679-3.405,1.679-6.537V44.666h7.018v20.153c0,2.363-0.155,4.248-0.466,5.657c-0.312,1.409-0.807,2.521-1.486,3.338
		c-1.331,1.575-3.006,2.732-5.021,3.476c-2.025,0.743-4.532,1.113-7.527,1.113c-2.994,0-5.509-0.37-7.538-1.113
		c-2.037-0.743-3.724-1.9-5.051-3.476c-0.669-0.802-1.149-1.885-1.453-3.246c-0.303-1.364-0.458-3.279-0.458-5.749V44.666H477.291z
		 M504.032,44.666h8.881l13.672,23.969l-0.347-23.969h7.157v33.367h-8.13l-14.353-25.241l0.317,25.241h-7.198V44.666z
		 M538.128,78.033h7.339V44.666h-7.339V78.033z M578.575,50.614H561.25c-1.863,0-3.224,0.348-4.097,1.046
		c-0.865,0.695-1.301,1.801-1.301,3.316c0,1.209,0.369,2.115,1.112,2.721c0.736,0.606,1.838,0.909,3.31,0.909h9.272
		c3.849,0,6.588,0.725,8.211,2.182c1.631,1.449,2.444,3.871,2.444,7.257c0,3.435-0.939,5.957-2.817,7.568s-4.829,2.418-8.858,2.418
		h-18.667v-5.949h17.558c1.996,0,3.401-0.292,4.219-0.873c0.813-0.584,1.224-1.545,1.224-2.895c0-1.39-0.377-2.381-1.124-2.973
		c-0.747-0.588-2.026-0.88-3.838-0.88h-8.281c-3.846,0-6.663-0.769-8.438-2.307c-1.782-1.538-2.669-3.959-2.669-7.276
		c0-3.538,0.938-6.13,2.803-7.76c1.87-1.634,4.847-2.455,8.917-2.455h18.346V50.614z"/>
	<path clip-path="url(#SVGID_2_)" fill-rule="evenodd" clip-rule="evenodd" fill="#172983" d="M33.057,78.029
		c-3.119,0-5.437-0.262-6.947-0.78c-1.514-0.521-2.869-1.424-4.067-2.71c-1.105-1.149-1.884-2.455-2.338-3.904
		c-0.455-1.453-0.682-3.49-0.682-6.126V44.669h7.019v19.613c0,1.952,0.087,3.328,0.261,4.119c0.172,0.799,0.473,1.438,0.898,1.919
		c0.662,0.788,1.48,1.35,2.449,1.682c0.969,0.333,2.309,0.499,4.017,0.499h8.269h0.231L53.94,44.669h7.442l14.225,33.359h-7.803
		l-3.063-7.941h-14.5l-2.972,7.941H33.057z M366.372,50.614h-17.325c-1.856,0-3.224,0.348-4.089,1.046
		c-0.873,0.691-1.309,1.801-1.309,3.313c0,1.213,0.369,2.119,1.112,2.725c0.736,0.606,1.845,0.909,3.309,0.909h9.276
		c3.846,0,6.585,0.729,8.212,2.182c1.627,1.449,2.44,3.867,2.44,7.257c0,3.438-0.939,5.96-2.817,7.568
		c-1.879,1.612-4.829,2.414-8.858,2.414h-18.667v-5.945h17.558c1.996,0,3.401-0.296,4.219-0.873
		c0.816-0.584,1.224-1.545,1.224-2.895c0-1.386-0.37-2.381-1.124-2.969c-0.743-0.592-2.026-0.884-3.838-0.884h-8.278
		c-3.849,0-6.658-0.769-8.44-2.307c-1.778-1.534-2.669-3.963-2.669-7.276c0-3.538,0.938-6.13,2.81-7.764
		c1.867-1.63,4.84-2.447,8.914-2.447h18.342V50.614z M322.546,50.474c-2.544,0-4.459,0.64-5.753,1.912
		c-1.294,1.279-2.008,3.224-2.145,5.853l19.425,0.022v5.782h-19.47c0.016,2.91,0.633,4.999,1.849,6.271
		c1.221,1.272,3.246,1.908,6.094,1.908h11.527v5.808h-11.868c-2.617,0-4.666-0.218-6.163-0.666
		c-1.497-0.447-2.902-1.201-4.219-2.263c-1.708-1.36-2.987-3.131-3.841-5.32c-0.854-2.185-1.279-4.803-1.279-7.842
		c0-5.901,1.279-10.256,3.83-13.063c2.555-2.81,6.511-4.207,11.879-4.207h11.661v5.804H322.546z M276.048,44.669h17.275
		c4.028,0,6.98,0.81,8.858,2.429c1.878,1.62,2.817,4.156,2.817,7.605c0,2.558-0.577,4.651-1.738,6.27
		c-1.161,1.623-2.828,2.666-5.009,3.139l8.326,13.916h-7.893l-7.356-13.103h-8.265v13.103h-7.016V44.669z M291.668,50.614h-8.605
		v8.415h8.605c2.333,0,3.949-0.318,4.858-0.961c0.908-0.636,1.363-1.723,1.363-3.268c0-1.531-0.444-2.614-1.329-3.243
		C295.674,50.929,294.046,50.614,291.668,50.614 M263.809,78.029h7.341V44.666h-7.341V78.029z M244.435,49.734
		c-3.006,0-5.255,0.939-6.745,2.81c-1.488,1.875-2.235,4.71-2.235,8.507c0,4.115,0.723,7.132,2.167,9.047
		c1.442,1.911,3.718,2.869,6.814,2.869c3.056,0,5.32-0.95,6.792-2.85c1.477-1.897,2.211-4.821,2.211-8.766
		c0-3.963-0.734-6.892-2.211-8.781C249.755,50.677,247.491,49.734,244.435,49.734 M227.789,61.007c0-5.731,1.37-9.994,4.115-12.796
		c2.745-2.799,6.921-4.196,12.531-4.196c5.657,0,9.84,1.412,12.554,4.244c2.716,2.828,4.071,7.191,4.071,13.092
		c0,5.9-1.355,10.267-4.071,13.11c-2.713,2.843-6.897,4.267-12.554,4.267c-5.712,0-9.919-1.431-12.611-4.289
		S227.789,67.104,227.789,61.007 M210.571,50.522h-10.783v-5.808h28.856v5.808h-10.823v27.507h-7.25V50.522z M184.925,44.669h7.442
		l14.223,33.359h-7.803l-3.065-7.941H181.23l-2.972,7.941h-13.005l-7.355-13.103h-8.262v13.103h-7.019V44.669h17.279
		c4.028,0,6.979,0.81,8.856,2.429c1.876,1.62,2.815,4.156,2.815,7.605c0,2.558-0.579,4.651-1.737,6.27
		c-1.154,1.623-2.829,2.666-5.008,3.139l6.958,11.631L184.925,44.669z M188.373,51.294l-4.876,12.844h9.938L188.373,51.294z
		 M158.237,50.614h-8.602v8.415h8.602c2.333,0,3.952-0.318,4.862-0.961c0.908-0.636,1.359-1.723,1.359-3.268
		c0-1.531-0.444-2.614-1.329-3.243C162.247,50.929,160.615,50.614,158.237,50.614 M123.293,49.734c-3.009,0-5.257,0.939-6.746,2.81
		c-1.488,1.875-2.235,4.71-2.235,8.507c0,4.115,0.719,7.132,2.167,9.047c1.442,1.911,3.714,2.869,6.814,2.869
		c3.056,0,5.316-0.95,6.792-2.85c1.477-1.897,2.211-4.821,2.211-8.766c0-3.963-0.734-6.892-2.211-8.781
		C128.61,50.677,126.349,49.734,123.293,49.734 M106.647,61.007c0-5.731,1.372-9.994,4.115-12.796
		c2.745-2.799,6.921-4.196,12.532-4.196c5.653,0,9.84,1.412,12.55,4.244c2.719,2.828,4.074,7.191,4.074,13.092
		c0,5.9-1.355,10.267-4.074,13.11c-2.71,2.843-6.897,4.267-12.55,4.267c-5.716,0-9.919-1.431-12.611-4.289
		C107.991,71.581,106.647,67.104,106.647,61.007 M94.188,78.029h-18.37V44.669h17.144c2.161,0,3.921,0.118,5.272,0.362
		c1.357,0.236,2.451,0.625,3.279,1.153c1.228,0.773,2.161,1.771,2.806,2.999c0.64,1.228,0.961,2.618,0.961,4.178
		c0,1.856-0.401,3.435-1.2,4.732c-0.804,1.291-2.056,2.377-3.764,3.253c1.723,0.729,2.995,1.708,3.819,2.939
		c0.826,1.235,1.238,2.784,1.238,4.64c0,3.121-0.909,5.417-2.727,6.892C100.835,77.29,98.016,78.029,94.188,78.029 M93.211,72.132
		c1.604,0,2.771-0.314,3.498-0.943c0.727-0.628,1.091-1.615,1.091-2.961c0-1.364-0.368-2.362-1.102-2.998
		c-0.734-0.636-1.896-0.95-3.486-0.95H82.837v7.853H93.211z M82.837,50.663v7.712h10.26c1.592,0,2.756-0.314,3.5-0.942
		c0.738-0.629,1.109-1.601,1.109-2.914c0-1.331-0.371-2.311-1.109-2.928c-0.743-0.621-1.908-0.928-3.5-0.928H82.837z M57.39,51.294
		l-4.877,12.844h9.935L57.39,51.294z"/>
	<path clip-path="url(#SVGID_2_)" fill="#172983" d="M15.475,119.53H579.81c3.608,0,6.885-1.475,9.266-3.853
		c2.373-2.374,3.849-5.653,3.849-9.258V15.491c0-3.605-1.476-6.88-3.849-9.254c-2.381-2.377-5.657-3.853-9.266-3.853H15.475
		c-3.608,0-6.89,1.475-9.263,3.853c-2.374,2.374-3.851,5.649-3.851,9.254v90.928c0,3.605,1.477,6.884,3.851,9.258
		C8.585,118.055,11.866,119.53,15.475,119.53 M579.81,121.911H15.475c-4.248,0-8.117-1.741-10.921-4.551
		c-2.81-2.806-4.551-6.677-4.551-10.94V15.491c0-4.259,1.741-8.134,4.551-10.94C7.357,1.745,11.227,0,15.475,0H579.81
		c4.252,0,8.119,1.745,10.922,4.551c2.81,2.806,4.551,6.681,4.551,10.94v90.928c0,4.263-1.741,8.134-4.551,10.94
		C587.929,120.169,584.062,121.911,579.81,121.911"/>
</g>
</svg>
