<svg width="600" height="112" viewBox="0 0 600 112" fill="none" xmlns="http://www.w3.org/2000/svg">
<g clip-path="url(#clip0_346_2388)">
<rect width="600" height="112" rx="34" fill="white"/>
<path d="M571.586 0.099385L508.354 0H28.4142C12.7064 0 0 12.6211 0 28.2236V83.677C0 99.2795 12.7064 111.901 28.4142 111.901H507.454L571.586 112C587.294 112 600 99.3789 600 83.7764V28.323C600 12.7205 587.294 0.099385 571.586 0.099385ZM593.297 83.7764C593.297 95.6025 583.592 105.242 571.686 105.242L508.454 105.143H28.4142C16.5083 105.143 6.8034 95.5031 6.8034 83.677V28.2236C6.8034 16.3975 16.5083 6.75775 28.4142 6.75775H507.054L571.586 6.85714C583.492 6.85714 593.197 16.4969 593.197 28.323V83.7764H593.297Z" fill="#005CA8"/>
<path d="M571.586 0.099385L508.354 0H28.4142C12.7064 0 0 12.6211 0 28.2236V83.677C0 99.2795 12.7064 111.901 28.4142 111.901H507.454L571.586 112C587.294 112 600 99.3789 600 83.7764V28.323C600 12.7205 587.294 0.099385 571.586 0.099385ZM593.297 83.7764C593.297 95.6025 583.592 105.242 571.686 105.242L508.454 105.143H28.4142C16.5083 105.143 6.8034 95.5031 6.8034 83.677V28.2236C6.8034 16.3975 16.5083 6.75775 28.4142 6.75775H507.054L571.586 6.85714C583.492 6.85714 593.197 16.4969 593.197 28.323V83.7764H593.297Z" fill="#005CA8"/>
<path d="M571.2 4.5L506.7 4.39999H385.7V108H508L571.2 108.1C583.1 108.1 595 95.8 595 83.9V28.1C595.1 16.2 583.2 4.5 571.2 4.5Z" fill="#005CA8"/>
<path d="M40.5 71.6V40.1H47.2V65.8H59.7V71.6H40.5Z" fill="#E74F35"/>
<path d="M61.8 71.6L73.3 40.1H81.4L92.8 71.6H85.6L83.2 64.7H71.2L68.8 71.6H61.8ZM73 59.3H81.3L77.1 47.3L73 59.3Z" fill="#E74F35"/>
<path d="M107.7 40.1C111.4 40.1 114.2 40.8 116.2 42.3C118.2 43.7 119.2 45.8 119.2 48.4C119.2 50.3 118.7 51.9 117.6 53.1C116.5 54.3 115 55.1 113 55.4C115.3 55.7 117.1 56.5 118.4 57.7C119.7 58.9 120.3 60.6 120.3 62.7C120.3 65.5 119.2 67.6 117.1 69.2C115 70.8 112 71.6 108.2 71.6H95.6V40.1H107.7ZM102.4 53.1H107.8C109.2 53.1 110.4 52.8 111.2 52.1C112 51.4 112.4 50.5 112.4 49.3C112.4 48.1 112 47.2 111.2 46.5C110.4 45.8 109.3 45.5 107.8 45.5H102.4V53.1ZM102.4 66.3H108.3C109.9 66.3 111.2 66 112.1 65.3C113 64.6 113.4 63.6 113.4 62.4C113.4 61.1 113 60.1 112.1 59.4C111.2 58.7 110 58.3 108.4 58.3H102.5V66.3H102.4Z" fill="#E74F35"/>
<path d="M152.8 64.1C151.5 66.5 149.6 68.5 147.3 69.8C144.9 71.2 142.2 71.9 139.2 71.9C136.2 71.9 133.5 71.2 131.1 69.8C128.7 68.4 126.9 66.5 125.6 64.1C124.3 61.7 123.6 58.9 123.6 55.9C123.6 52.9 124.3 50.1 125.6 47.7C126.9 45.3 128.8 43.3 131.1 42C133.5 40.6 136.2 39.9 139.2 39.9C142.2 39.9 144.9 40.6 147.3 42C149.7 43.4 151.5 45.3 152.8 47.7C154.1 50.1 154.8 52.9 154.8 55.9C154.7 58.9 154.1 61.6 152.8 64.1ZM131.5 61.2C132.2 62.8 133.2 64 134.6 64.9C135.9 65.8 137.4 66.2 139.2 66.2C140.9 66.2 142.4 65.8 143.7 64.9C145 64 146 62.8 146.8 61.2C147.5 59.6 147.9 57.9 147.9 55.9C147.9 53.9 147.5 52.1 146.8 50.6C146.1 49 145.1 47.8 143.7 46.9C142.4 46 140.9 45.6 139.2 45.6C137.5 45.6 135.9 46 134.6 46.9C133.3 47.8 132.3 49 131.5 50.6C130.8 52.2 130.4 53.9 130.4 55.9C130.4 57.8 130.7 59.6 131.5 61.2Z" fill="#E74F35"/>
<path d="M171.7 40.1C174 40.1 176 40.5 177.8 41.4C179.6 42.3 180.9 43.5 181.9 45.1C182.9 46.7 183.3 48.5 183.3 50.6C183.3 52.6 182.8 54.4 181.9 55.9C180.9 57.4 179.6 58.6 177.9 59.4L184.1 71.6H176.6L171.3 61H165.6V71.6H158.8V40.1H171.7ZM165.6 55.4H171.1C172.7 55.4 174 55 174.9 54.1C175.8 53.2 176.3 52.1 176.3 50.6C176.3 49.1 175.8 47.9 174.9 47C174 46.1 172.7 45.7 171.1 45.7H165.6V55.4Z" fill="#E74F35"/>
<path d="M185.2 71.6L196.7 40.1H204.8L216.2 71.6H209L206.6 64.7H194.6L192.2 71.6H185.2ZM196.4 59.3H204.7L200.5 47.3L196.4 59.3Z" fill="#E74F35"/>
<path d="M212.9 40.1H237.9V45.9H228.8V71.6H222V45.9H212.9V40.1Z" fill="#E74F35"/>
<path d="M268.6 64.1C267.3 66.5 265.4 68.5 263.1 69.8C260.7 71.2 258 71.9 255 71.9C252 71.9 249.3 71.2 246.9 69.8C244.5 68.4 242.7 66.5 241.4 64.1C240.1 61.7 239.4 58.9 239.4 55.9C239.4 52.9 240.1 50.1 241.4 47.7C242.7 45.3 244.6 43.3 246.9 42C249.3 40.6 252 39.9 255 39.9C258 39.9 260.7 40.6 263.1 42C265.5 43.4 267.3 45.3 268.6 47.7C269.9 50.1 270.6 52.9 270.6 55.9C270.6 58.9 270 61.6 268.6 64.1ZM247.4 61.2C248.1 62.8 249.1 64 250.5 64.9C251.8 65.8 253.3 66.2 255.1 66.2C256.8 66.2 258.3 65.8 259.6 64.9C260.9 64 261.9 62.8 262.7 61.2C263.4 59.6 263.8 57.9 263.8 55.9C263.8 53.9 263.4 52.1 262.7 50.6C262 49 261 47.8 259.6 46.9C258.3 46 256.8 45.6 255.1 45.6C253.4 45.6 251.8 46 250.5 46.9C249.2 47.8 248.2 49 247.4 50.6C246.7 52.2 246.3 53.9 246.3 55.9C246.3 57.8 246.6 59.6 247.4 61.2Z" fill="#E74F35"/>
<path d="M281.5 40.1H274.7V71.6H281.5V40.1Z" fill="#E74F35"/>
<path d="M299.6 40.1C301.9 40.1 303.9 40.5 305.7 41.4C307.5 42.3 308.8 43.5 309.8 45.1C310.8 46.7 311.2 48.5 311.2 50.6C311.2 52.6 310.7 54.4 309.8 55.9C308.8 57.4 307.5 58.6 305.8 59.4L312 71.6H304.5L299.2 61H293.5V71.6H286.7V40.1H299.6ZM293.6 55.4H299.1C300.7 55.4 302 55 302.9 54.1C303.8 53.2 304.3 52.1 304.3 50.6C304.3 49.1 303.8 47.9 302.9 47C302 46.1 300.7 45.7 299.1 45.7H293.6V55.4Z" fill="#E74F35"/>
<path d="M315.7 40.1H336.9V45.9H322.5V53H334.2V58.5H322.5V65.8H337.4V71.6H315.7V40.1Z" fill="#E74F35"/>
<path d="M346.8 61.3C346.9 62.9 347.6 64.1 348.7 65.1C349.9 66 351.4 66.5 353.3 66.5C354.9 66.5 356.2 66.2 357.2 65.5C358.2 64.8 358.7 63.9 358.7 62.7C358.7 61.9 358.4 61.2 357.9 60.7C357.3 60.2 356.6 59.8 355.6 59.5C354.6 59.2 353 58.9 350.9 58.4C348.8 58 347.1 57.5 345.7 56.9C344.3 56.3 343.1 55.4 342.3 54.2C341.4 53 341 51.4 341 49.4C341 47.6 341.5 45.9 342.5 44.5C343.5 43.1 344.9 41.9 346.7 41.1C348.5 40.3 350.5 39.9 352.8 39.9C355.1 39.9 357.2 40.3 359 41.2C360.8 42.1 362.3 43.2 363.4 44.7C364.5 46.2 365 47.9 365 49.8H358.4C358.3 48.4 357.7 47.4 356.7 46.5C355.7 45.7 354.4 45.3 352.8 45.3C351.3 45.3 350.1 45.6 349.2 46.2C348.3 46.8 347.8 47.7 347.8 48.9C347.8 49.7 348.1 50.4 348.6 50.9C349.1 51.4 349.9 51.7 350.9 52C351.9 52.3 353.4 52.6 355.5 53C357.6 53.4 359.4 53.9 360.8 54.5C362.2 55.1 363.4 56 364.3 57.2C365.2 58.4 365.6 60 365.6 61.9C365.6 63.8 365.1 65.5 364 67.1C363 68.6 361.5 69.8 359.6 70.7C357.7 71.6 355.6 72 353.3 72C350.8 72 348.5 71.5 346.6 70.6C344.6 69.7 343.1 68.4 342 66.8C340.9 65.2 340.3 63.4 340.3 61.4L346.8 61.3Z" fill="#E74F35"/>
<path d="M418.8 40.1C421.1 40.1 423.1 40.5 424.9 41.4C426.7 42.3 428 43.5 429 45.1C430 46.7 430.4 48.5 430.4 50.6C430.4 52.6 429.9 54.4 429 55.9C428 57.4 426.7 58.6 425 59.4L431.2 71.6H423.7L418.4 61H412.7V71.6H406V40.1H418.8ZM412.8 55.4H418.3C419.9 55.4 421.2 55 422.1 54.1C423 53.2 423.5 52.1 423.5 50.6C423.5 49.1 423 47.9 422.1 47C421.2 46.1 419.9 45.7 418.3 45.7H412.8V55.4Z" fill="white"/>
<path d="M434.9 40.1H456V45.9H441.6V53H453.3V58.5H441.6V65.8H456.5V71.6H434.9V40.1ZM438.7 31.8H452.7V36.3H438.7V31.8Z" fill="white"/>
<path d="M467.1 40.1V58.4C467.1 61 467.6 62.9 468.6 64.2C469.6 65.5 471.1 66.1 473.3 66.1C475.4 66.1 477 65.5 478 64.2C479 62.9 479.5 61 479.5 58.4V40.1H486.3V58C486.3 62.5 485.2 65.9 483 68.3C480.8 70.7 477.6 71.9 473.3 71.9C469.1 71.9 465.9 70.7 463.7 68.3C461.5 65.9 460.4 62.5 460.4 58V40.1H467.1Z" fill="white"/>
<path d="M491.4 71.6V40.1H497.5L510.9 60V40.1H517.6V71.6H511.4L498 51.8V71.6H491.4Z" fill="white"/>
<path d="M529.7 40.1H522.9V71.6H529.7V40.1Z" fill="white"/>
<path d="M540.4 61.3C540.5 62.9 541.2 64.1 542.3 65.1C543.5 66 545 66.5 546.9 66.5C548.5 66.5 549.8 66.2 550.8 65.5C551.8 64.8 552.3 63.9 552.3 62.7C552.3 61.9 552 61.2 551.5 60.7C550.9 60.2 550.2 59.8 549.2 59.5C548.2 59.2 546.6 58.9 544.5 58.4C542.4 58 540.7 57.5 539.3 56.9C537.9 56.3 536.7 55.4 535.9 54.2C535 53 534.6 51.4 534.6 49.4C534.6 47.6 535.1 45.9 536.1 44.5C537.1 43.1 538.5 41.9 540.3 41.1C542.1 40.3 544.1 39.9 546.4 39.9C548.7 39.9 550.8 40.3 552.6 41.2C554.4 42.1 555.9 43.2 557 44.7C558.1 46.2 558.6 47.9 558.6 49.8H552C551.9 48.4 551.3 47.4 550.3 46.5C549.3 45.7 548 45.3 546.4 45.3C544.9 45.3 543.7 45.6 542.8 46.2C541.9 46.8 541.4 47.7 541.4 48.9C541.4 49.7 541.7 50.4 542.2 50.9C542.7 51.4 543.5 51.7 544.5 52C545.5 52.3 547 52.6 549.1 53C551.2 53.4 553 53.9 554.4 54.5C555.8 55.1 557 56 557.9 57.2C558.8 58.4 559.2 60 559.2 61.9C559.2 63.8 558.7 65.5 557.6 67.1C556.6 68.6 555.1 69.8 553.2 70.7C551.3 71.6 549.2 72 546.9 72C544.4 72 542.1 71.5 540.2 70.6C538.2 69.7 536.7 68.4 535.6 66.8C534.5 65.2 533.9 63.4 533.9 61.4L540.4 61.3Z" fill="white"/>
</g>
<defs>
<clipPath id="clip0_346_2388">
<rect width="600" height="112" fill="white"/>
</clipPath>
</defs>
</svg>
